<svg width="22" height="22" viewBox="0 0 22 22" fill="none" xmlns="http://www.w3.org/2000/svg">
<path d="M0.552373 5.27627C-0.0242666 4.89587 -0.187437 4.11551 0.245033 3.57682C1.37351 2.17115 2.77757 0.996194 4.37524 0.133894C4.98295 -0.194102 5.7207 0.107664 5.99053 0.743344C6.26019 1.37862 5.9596 2.1065 5.35929 2.44696C4.20776 3.10004 3.18566 3.95485 2.34102 4.96336C2.28565 5.02947 2.22518 5.08988 2.16061 5.14424C1.70864 5.52474 1.05627 5.60868 0.552373 5.27627Z" fill="black"/>
<path d="M21.311 3.57684C21.7434 4.11553 21.5803 4.89589 21.0036 5.27629C20.4277 5.65618 19.6579 5.49228 19.215 4.96337C18.3703 3.95487 17.3482 3.10006 16.1967 2.44698C16.1217 2.40442 16.0513 2.35581 15.9862 2.30208C15.5302 1.92599 15.3295 1.29922 15.5655 0.743363C15.5992 0.663903 15.6402 0.589663 15.6874 0.521213C15.896 0.218623 16.2246 0.0292934 16.5724 0.00313543C16.6573 -0.00325157 16.7434 8.84309e-05 16.8291 0.0138814C16.9483 0.0330534 17.0668 0.0724134 17.1808 0.133913C18.7784 0.996203 20.1825 2.17117 21.311 3.57684Z" fill="black"/>
<path d="M10.153 13.1044C9.76621 12.8811 9.52801 12.4685 9.52801 12.0219V9.27193C9.52801 8.58158 10.0876 8.02193 10.778 8.02193C11.4683 8.02193 12.028 8.58158 12.028 9.27193V11.3002L14.2176 12.5644C14.8154 12.9096 15.0203 13.674 14.6751 14.2719C14.3299 14.8698 13.5654 15.0746 12.9676 14.7294L10.153 13.1044Z" fill="black"/>
<path fill-rule="evenodd" clip-rule="evenodd" d="M19.778 12.0219C19.778 16.9925 15.7486 21.0219 10.778 21.0219C5.80743 21.0219 1.77799 16.9925 1.77799 12.0219C1.77799 7.05137 5.80743 3.02193 10.778 3.02193C15.7486 3.02193 19.778 7.05137 19.778 12.0219ZM17.278 12.0219C17.278 15.6118 14.3678 18.5219 10.778 18.5219C7.18814 18.5219 4.27799 15.6118 4.27799 12.0219C4.27799 8.43208 7.18814 5.52193 10.778 5.52193C14.3678 5.52193 17.278 8.43208 17.278 12.0219Z" fill="black"/>
</svg>
