<svg width="15" height="15" viewBox="0 0 15 15" fill="none" xmlns="http://www.w3.org/2000/svg">
<path d="M12.7404 0.366116C13.2286 -0.122034 14.0201 -0.122044 14.5083 0.366116C14.9964 0.854266 14.9964 1.64573 14.5083 2.13388L9.20495 7.43716L14.5083 12.7405C14.9964 13.2287 14.9964 14.0201 14.5083 14.5083C14.0201 14.9965 13.2286 14.9965 12.7404 14.5083L7.43715 9.20496L2.13389 14.5083C1.64573 14.9964 0.85427 14.9964 0.36612 14.5083C-0.12204 14.0201 -0.12204 13.2286 0.36612 12.7405L5.66935 7.43716L0.36612 2.13393C-0.12203 1.64577 -0.12203 0.854316 0.36612 0.366156C0.85428 -0.121994 1.64573 -0.121994 2.13389 0.366156L7.43715 5.66946L12.7404 0.366116Z" fill="black"/>
</svg>
