<svg width="20" height="20" viewBox="0 0 20 20" fill="none" xmlns="http://www.w3.org/2000/svg">
<rect width="20" height="20" fill="white"/>
<path fill-rule="evenodd" clip-rule="evenodd" d="M6.62006 3.30283C5.36614 3.93688 4.31417 4.91295 3.58666 6.10935C3.01964 7.04183 2.65027 8.10763 2.53698 9.25H5.01656C5.10886 7.16919 5.5825 5.27018 6.32807 3.8229C6.41981 3.64482 6.51719 3.47103 6.62006 3.30283ZM10 1C6.73829 1 3.88264 2.73557 2.30501 5.33C1.47681 6.692 1 8.29147 1 10C1 14.9706 5.02944 19 10 19C14.9706 19 19 14.9706 19 10C19 8.29147 18.5232 6.692 17.695 5.33C16.1174 2.73557 13.2617 1 10 1ZM9.25 2.69419C8.70918 2.9718 8.15257 3.55664 7.66153 4.50984C7.0393 5.71769 6.60954 7.37361 6.51816 9.25H9.25V2.69419ZM9.25 10.75H6.51816C6.60954 12.6264 7.0393 14.2823 7.66153 15.4902C8.15257 16.4434 8.70918 17.0282 9.25 17.3058V10.75ZM6.61994 16.697C6.51711 16.5288 6.41977 16.3551 6.32807 16.1771C5.5825 14.7298 5.10886 12.8308 5.01656 10.75H2.53703C2.79567 13.355 4.38718 15.5678 6.61994 16.697ZM13.3801 16.697C15.6128 15.5678 17.2043 13.355 17.463 10.75H14.9834C14.8911 12.8308 14.4175 14.7298 13.6719 16.1771C13.5802 16.3551 13.4829 16.5288 13.3801 16.697ZM13.4818 10.75H10.75V17.3058C11.2908 17.0282 11.8474 16.4434 12.3385 15.4902C12.9607 14.2823 13.3905 12.6264 13.4818 10.75ZM13.4818 9.25H10.75V2.69419C11.2908 2.9718 11.8474 3.55664 12.3385 4.50984C12.9607 5.71769 13.3905 7.37361 13.4818 9.25ZM14.9834 9.25C14.8911 7.16919 14.4175 5.27018 13.6719 3.8229C13.5802 3.64482 13.4828 3.47103 13.3799 3.30283C14.6339 3.93688 15.6858 4.91295 16.4133 6.10935C16.9804 7.04183 17.3497 8.10763 17.463 9.25H14.9834Z" fill="black"/>
</svg>
