<svg width="20" height="20" viewBox="0 0 20 20" fill="none" xmlns="http://www.w3.org/2000/svg">
<g clip-path="url(#clip0_20_31)">
<rect width="20" height="20" fill="white"/>
<path fill-rule="evenodd" clip-rule="evenodd" d="M10 0C4.47715 0 0 4.47715 0 10C0 15.5228 4.47715 20 10 20C15.5228 20 20 15.5228 20 10C20 4.47715 15.5228 0 10 0ZM8.03047 1.72934C8.66259 1.57938 9.32202 1.5 10 1.5C10.3827 1.5 10.7594 1.52529 11.1287 1.57428L10.5937 3.37598C10.5273 3.59968 10.6245 3.83958 10.8278 3.95403L11.9879 4.60697C12.1596 4.70361 12.3721 4.6904 12.5305 4.57324L14.5805 3.05706C14.6315 3.01933 14.674 2.97298 14.7066 2.92094C15.9246 3.73233 16.9212 4.84967 17.5868 6.16316L14.0063 5.74674C13.8998 5.73435 13.7922 5.75652 13.6993 5.80997L11.6344 6.99763C11.4142 7.12428 11.3239 7.39591 11.4246 7.62915L12.6728 10.5219C12.7355 10.6671 12.8632 10.7741 13.0171 10.8104L15.1973 11.325L16.6046 15.3358C16.6059 15.3393 16.6071 15.3428 16.6084 15.3463C15.0501 17.2702 12.6687 18.5 10 18.5C5.30558 18.5 1.5 14.6944 1.5 10C1.5 9.44637 1.55293 8.90511 1.654 8.38099L4.73519 9.64059L4.375 11.8441C4.34117 12.0511 4.44008 12.2572 4.62271 12.3602L6.93118 13.663L7.29477 16.1173C7.30276 16.1712 7.31949 16.2234 7.34432 16.2719L8.17405 17.8924C8.26328 18.0667 8.44603 18.1729 8.64163 18.164C8.83723 18.1552 9.00968 18.033 9.08286 17.8514L11.5368 11.7622C11.5886 11.6337 11.5848 11.4894 11.5262 11.3639C11.4676 11.2383 11.3596 11.1427 11.2278 11.0998L8.92793 10.3511L7.96888 9.03407C7.87477 8.90484 7.72455 8.8284 7.56469 8.8284H5.7567L5.57562 6.41817L9.07019 5.25933C9.20585 5.21434 9.31578 5.11344 9.3722 4.98212C9.42862 4.85079 9.42615 4.7016 9.36539 4.57222L8.03047 1.72934Z" fill="black"/>
</g>
<defs>
<clipPath id="clip0_20_31">
<rect width="20" height="20" fill="white"/>
</clipPath>
</defs>
</svg>
