<svg width="27" height="23" viewBox="0 0 27 23" fill="none" xmlns="http://www.w3.org/2000/svg">
<path d="M26.25 21.5C26.25 21.6989 26.171 21.8897 26.0303 22.0303C25.8897 22.171 25.6989 22.25 25.5 22.25H1.5C1.30109 22.25 1.11032 22.171 0.96967 22.0303C0.829018 21.8897 0.75 21.6989 0.75 21.5V1.5C0.75 1.30109 0.829018 1.11032 0.96967 0.96967C1.11032 0.829018 1.30109 0.75 1.5 0.75C1.69891 0.75 1.88968 0.829018 2.03033 0.96967C2.17098 1.11032 2.25 1.30109 2.25 1.5V13.8475L9.00625 7.935C9.13572 7.82188 9.30012 7.75668 9.47192 7.75031C9.64373 7.74393 9.81251 7.79678 9.95 7.9L17.4638 13.535L25.0063 6.935C25.1572 6.81869 25.3469 6.76423 25.5366 6.7827C25.7263 6.80116 25.9018 6.89116 26.0276 7.0344C26.1533 7.17765 26.2198 7.36339 26.2135 7.55389C26.2072 7.74439 26.1287 7.92535 25.9937 8.06L17.9937 15.06C17.8643 15.1731 17.6999 15.2383 17.5281 15.2447C17.3563 15.2511 17.1875 15.1982 17.05 15.095L9.53625 9.465L2.25 15.84V20.75H25.5C25.6989 20.75 25.8897 20.829 26.0303 20.9697C26.171 21.1103 26.25 21.3011 26.25 21.5Z" fill="black"/>
</svg>
