<svg width="21" height="21" viewBox="0 0 21 21" fill="none" xmlns="http://www.w3.org/2000/svg">
<path d="M11.0607 18.9096C8.51957 21.4127 4.43041 21.401 1.9038 18.8744C-0.634601 16.3359 -0.634601 12.2204 1.9038 9.68203L4.02512 7.56067C6.56352 5.02226 10.6791 5.02226 13.2175 7.56065C13.7057 8.04881 13.7056 8.84023 13.2175 9.32843C12.7293 9.81653 11.9379 9.81653 11.4497 9.32843C9.88757 7.76635 7.35497 7.76635 5.79289 9.32843L3.67157 11.4497C2.10947 13.0118 2.10947 15.5445 3.67157 17.1066C5.22186 18.6569 7.72811 18.6686 9.29287 17.1417C9.78097 16.6536 10.5727 16.6538 11.0608 17.1419C11.549 17.6301 11.5489 18.4214 11.0607 18.9096Z" fill="black"/>
<path d="M18.8744 1.90381C16.3477 -0.622807 12.2586 -0.634547 9.71748 1.86858C9.22928 2.35674 9.22918 3.14808 9.71728 3.63623C10.2055 4.12439 10.9972 4.12459 11.4853 3.63644C13.05 2.10957 15.5563 2.12128 17.1066 3.67157C18.6687 5.23367 18.6687 7.76633 17.1066 9.32846L14.9853 11.4498C13.4232 13.0119 10.8905 13.0119 9.32838 11.4498C8.84028 10.9617 8.04877 10.9617 7.56062 11.4498C7.07246 11.938 7.07249 12.7294 7.56065 13.2176C10.0991 15.756 14.2146 15.756 16.753 13.2176L18.8744 11.0962C21.4128 8.55776 21.4128 4.44222 18.8744 1.90381Z" fill="black"/>
</svg>
