<svg width="18" height="23" viewBox="0 0 18 23" fill="none" xmlns="http://www.w3.org/2000/svg">
<path fill-rule="evenodd" clip-rule="evenodd" d="M9 13C11.2091 13 13 11.2091 13 9C13 6.79086 11.2091 5 9 5C6.79086 5 5 6.79086 5 9C5 11.2091 6.79086 13 9 13ZM9 10.5C9.8284 10.5 10.5 9.8284 10.5 9C10.5 8.17157 9.8284 7.5 9 7.5C8.1716 7.5 7.5 8.17157 7.5 9C7.5 9.8284 8.1716 10.5 9 10.5Z" fill="black"/>
<path fill-rule="evenodd" clip-rule="evenodd" d="M18 9C18 13.963 12.7052 19.549 10.238 21.8825C9.5344 22.5479 8.4656 22.5479 7.762 21.8825C5.29483 19.549 0 13.963 0 9C0 4.02944 4.02944 0 9 0C13.9706 0 18 4.02944 18 9ZM15.5 9C15.5 10.684 14.555 12.7886 13.0028 14.9841C11.6962 16.8322 10.1528 18.477 9 19.6045C7.8472 18.477 6.30376 16.8322 4.99718 14.9841C3.445 12.7886 2.5 10.684 2.5 9C2.5 5.41015 5.41015 2.5 9 2.5C12.5899 2.5 15.5 5.41015 15.5 9Z" fill="black"/>
</svg>
