<svg width="24" height="24" viewBox="0 0 24 24" fill="none" xmlns="http://www.w3.org/2000/svg">
<path d="M12 16.75C12.9665 16.75 13.75 15.9665 13.75 15C13.75 14.0335 12.9665 13.25 12 13.25C11.0335 13.25 10.25 14.0335 10.25 15C10.25 15.9665 11.0335 16.75 12 16.75Z" fill="black"/>
<path fill-rule="evenodd" clip-rule="evenodd" d="M17 9V6C17 3.23858 14.7614 1 12 1C9.23858 1 7 3.23858 7 6V9H5C3.89543 9 3 9.89543 3 11V19C3 20.1046 3.89543 21 5 21H19C20.1046 21 21 20.1046 21 19V11C21 9.89543 20.1046 9 19 9H17ZM12 3.5C10.6193 3.5 9.5 4.61929 9.5 6V9H14.5V6C14.5 4.61929 13.3807 3.5 12 3.5ZM5.5 11.5H18.5V18.5H5.5V11.5Z" fill="black"/>
</svg>
