<svg width="20" height="20" viewBox="0 0 20 20" fill="none" xmlns="http://www.w3.org/2000/svg">
<rect width="20" height="20" fill="white"/>
<path fill-rule="evenodd" clip-rule="evenodd" d="M5.38095 6.22997C5.38095 3.87559 7.33418 1.99997 9.70238 1.99997H10.2976C12.6658 1.99997 14.619 3.87559 14.619 6.22997V6.80997C14.619 8.3223 13.8131 9.63709 12.609 10.3841C15.142 11.1411 17 13.4411 17 16.1866C17 17.2063 16.1572 18 15.1587 18H4.84127C3.84282 18 3 17.2063 3 16.1866C3 13.4411 4.85798 11.1411 7.39102 10.3841C6.18687 9.63709 5.38095 8.3223 5.38095 6.80997V6.22997ZM9.70238 3.49997C8.1257 3.49997 6.88095 4.74045 6.88095 6.22997V6.80997C6.88095 8.29949 8.1257 9.53997 9.70238 9.53997H10.2976C11.8743 9.53997 13.119 8.29949 13.119 6.80997V6.22997C13.119 4.74045 11.8743 3.49997 10.2976 3.49997H9.70238ZM9.20635 11.62C6.58865 11.62 4.5 13.6828 4.5 16.1866C4.5 16.3415 4.63434 16.5 4.84127 16.5H15.1587C15.3657 16.5 15.5 16.3415 15.5 16.1866C15.5 13.6828 13.4113 11.62 10.7937 11.62H9.20635Z" fill="black"/>
</svg>
