<svg width="22" height="22" viewBox="0 0 22 22" fill="none" xmlns="http://www.w3.org/2000/svg">
<path fill-rule="evenodd" clip-rule="evenodd" d="M10.7238 14.75C12.7949 14.75 14.4738 13.0711 14.4738 11C14.4738 8.92893 12.7949 7.25 10.7238 7.25C8.65282 7.25 6.97388 8.92893 6.97388 11C6.97388 13.0711 8.65282 14.75 10.7238 14.75ZM10.7238 12.25C11.4142 12.25 11.9738 11.6904 11.9738 11C11.9738 10.3096 11.4142 9.75 10.7238 9.75C10.0335 9.75 9.47385 10.3096 9.47385 11C9.47385 11.6904 10.0335 12.25 10.7238 12.25Z" fill="black"/>
<path fill-rule="evenodd" clip-rule="evenodd" d="M13.8418 0.86489L14.2439 3.81406C14.5711 3.97464 14.8857 4.1569 15.1859 4.35898L17.9421 3.23223C18.405 3.043 18.9365 3.2248 19.1866 3.65787L21.3137 7.34213C21.5637 7.77521 21.4554 8.3264 21.0601 8.63266L18.7057 10.4566C18.7177 10.6362 18.7238 10.8174 18.7238 11C18.7238 11.1826 18.7177 11.3638 18.7057 11.5434L21.0601 13.3673C21.4554 13.6736 21.5637 14.2248 21.3137 14.6579L19.1866 18.3421C18.9365 18.7752 18.405 18.957 17.9421 18.7678L15.1859 17.641C14.8857 17.8431 14.5711 18.0254 14.2439 18.1859L13.8418 21.1351C13.7742 21.6306 13.351 22 12.8509 22H8.59676C8.09669 22 7.6735 21.6306 7.60593 21.1351L7.20377 18.1859C6.87659 18.0254 6.56198 17.8431 6.26181 17.641L3.50558 18.7678C3.0427 18.957 2.51119 18.7752 2.26115 18.3421L0.134051 14.6579C-0.115989 14.2248 -0.00767857 13.6736 0.387641 13.3673L2.74204 11.5434C2.72999 11.3638 2.72388 11.1826 2.72388 11C2.72388 10.8174 2.72999 10.6362 2.74204 10.4566L0.387641 8.63266C-0.00767857 8.3264 -0.115989 7.77521 0.134041 7.34213L2.26115 3.65787C2.51118 3.2248 3.04269 3.043 3.50558 3.23223L6.26181 4.35898C6.56198 4.1569 6.87659 3.97464 7.20377 3.81406L7.60593 0.86489C7.6735 0.3694 8.09669 0 8.59676 0H12.8509C13.351 0 13.7742 0.3694 13.8418 0.86489ZM11.9468 5.47153L13.1425 6.05834C13.367 6.16853 13.5832 6.29376 13.7898 6.43282L14.8967 7.17804L17.6762 6.04179L18.4939 7.45821L16.1222 9.2956L16.2113 10.6239C16.2196 10.7479 16.2238 10.8732 16.2238 11C16.2238 11.1268 16.2196 11.2522 16.2113 11.3761L16.1222 12.7044L18.4939 14.5418L17.6762 15.9582L14.8967 14.822L13.7898 15.5672C13.5832 15.7062 13.367 15.8315 13.1425 15.9417L11.9468 16.5285L11.5416 19.5H9.90613L9.50093 16.5285L8.30523 15.9417C8.08071 15.8315 7.86451 15.7062 7.65796 15.5672L6.551 14.822L3.77155 15.9582L2.95378 14.5418L5.32553 12.7044L5.23643 11.3761C5.22812 11.2521 5.22387 11.1268 5.22387 11C5.22387 10.8732 5.22812 10.7479 5.23643 10.6239L5.32553 9.2956L2.95377 7.45821L3.77154 6.04179L6.551 7.17804L7.65796 6.43281C7.8645 6.29376 8.08071 6.16854 8.30523 6.05834L9.50093 5.47153L9.90613 2.5H11.5416L11.9468 5.47153Z" fill="black"/>
</svg>
