<svg width="22" height="21" viewBox="0 0 22 21" fill="none" xmlns="http://www.w3.org/2000/svg">
<path fill-rule="evenodd" clip-rule="evenodd" d="M9.58491 0.615968C9.92651 -0.205323 11.0899 -0.205323 11.4315 0.615968L13.8409 6.40892L20.0949 6.91029C20.9816 6.98138 21.3411 8.08788 20.6656 8.6666L15.9007 12.7482L17.3564 18.851C17.5628 19.7162 16.6216 20.4001 15.8625 19.9364L10.5082 16.666L5.15394 19.9364C4.39484 20.4001 3.45359 19.7162 3.65998 18.851L5.11572 12.7482L0.350863 8.6666C-0.324677 8.08788 0.0348427 6.98138 0.921503 6.91029L7.17547 6.40892L9.58491 0.615968ZM12.456 6.98496C12.672 7.50432 13.1604 7.85917 13.7211 7.90412L18.7767 8.3094L14.9249 11.609C14.4977 11.9749 14.3111 12.5491 14.4416 13.0962L15.6184 18.0297L11.2901 15.3859C10.8101 15.0927 10.2063 15.0927 9.72631 15.3859L5.39797 18.0297L6.57478 13.0962C6.7053 12.5491 6.51874 11.9749 6.09155 11.609L2.23967 8.3094L7.29534 7.90412C7.85602 7.85917 8.34444 7.50432 8.56041 6.98496L10.5082 2.30198L12.456 6.98496Z" fill="black"/>
</svg>
