<svg width="21" height="21" viewBox="0 0 21 21" fill="none" xmlns="http://www.w3.org/2000/svg">
<path d="M10.4451 4.04287C10.1621 4.19165 9.80389 4.14704 9.56589 3.90905C9.27299 3.61614 9.27299 3.14125 9.56599 2.8484L10.8034 1.61095C11.3435 1.07082 11.9681 0.666523 12.6345 0.398043C14.6184 -0.401157 16.9739 0.0031327 18.5817 1.61091C20.7296 3.7588 20.7296 7.2412 18.5817 9.38909L15.7532 12.2175C15.4222 12.5486 15.0595 12.8286 14.6748 13.0576C14.4355 13.2 14.1877 13.3227 13.9338 13.4257C11.9475 14.2312 9.58589 13.8285 7.97497 12.2176L7.79815 12.0408C7.50526 11.7479 7.50527 11.273 7.79816 10.9801C7.79992 10.9784 7.80169 10.9766 7.80347 10.9749C7.82938 10.9495 7.85667 10.9263 7.88511 10.9054C8.17859 10.6897 8.59349 10.7146 8.85889 10.98L9.03569 11.1569C10.2073 12.3284 11.9248 12.6213 13.3694 12.0355C13.4296 12.0111 13.4893 11.9852 13.5485 11.9577C13.9627 11.7655 14.3508 11.4986 14.6925 11.1569L17.5209 8.32849C19.083 6.76637 19.083 4.2337 17.5209 2.67161C16.36 1.51073 14.6631 1.21256 13.2269 1.77711C12.7306 1.97223 12.2654 2.27038 11.8642 2.67157L10.6267 3.90902C10.5901 3.94561 10.5507 3.97763 10.5091 4.00507C10.4883 4.01882 10.4669 4.03142 10.4451 4.04287Z" fill="black"/>
<path d="M10.6266 17.344C10.9196 17.0511 10.9196 16.5762 10.6267 16.2833C10.3801 16.0368 10.0046 15.9978 9.71718 16.1663C9.66318 16.198 9.61228 16.237 9.56588 16.2834L8.32838 17.5208C7.92419 17.9251 7.45495 18.2247 6.95436 18.4197C5.52054 18.9783 3.8295 18.6786 2.67167 17.5208C1.10957 15.9587 1.10957 13.426 2.67167 11.8639L5.50009 9.03547C5.87077 8.66477 6.2961 8.38206 6.75015 8.18727C8.20948 7.56138 9.96548 7.84412 11.1569 9.03547L11.3337 9.21237C11.5992 9.47777 12.0141 9.50267 12.3076 9.28687C12.3354 9.26647 12.3621 9.24387 12.3875 9.21907C12.3898 9.21687 12.3921 9.21457 12.3944 9.21227C12.6873 8.91937 12.6873 8.44447 12.3944 8.15157L12.2176 7.97481C10.5868 6.34396 8.18658 5.95138 6.18529 6.79709C5.55079 7.0652 4.9564 7.45779 4.43934 7.97485L1.61091 10.8033C-0.53697 12.9512 -0.53697 16.4336 1.61091 18.5815C3.22185 20.1924 5.58348 20.5951 7.56975 19.7896C7.8076 19.6932 8.04007 19.5794 8.26518 19.4483C8.66678 19.2145 9.04508 18.9255 9.38918 18.5814L10.6266 17.344Z" fill="black"/>
</svg>
